<?xml version="1.0" encoding="UTF-8"?>
<svg version="1.1" xmlns="http://www.w3.org/2000/svg" width="225" height="225">
<path d="M0 0 C74.25 0 148.5 0 225 0 C225 74.25 225 148.5 225 225 C150.75 225 76.5 225 0 225 C0 150.75 0 76.5 0 0 Z " fill="#282828" transform="translate(0,0)"/>
<path d="M0 0 C2.31 1.98 4.62 3.96 7 6 C7.79402222 6.61206299 8.58804443 7.22412598 9.40612793 7.85473633 C12.69352608 10.61525205 14.70679432 12.72871346 15.68774414 16.98193359 C15.9249557 20.57819739 15.90030457 24.08543129 15.78125 27.6875 C15.76993042 28.98574707 15.75861084 30.28399414 15.74694824 31.62158203 C15.71661479 35.04883398 15.6382323 38.47330941 15.54931641 41.8994751 C15.46700733 45.40525074 15.43040137 48.91149512 15.390625 52.41796875 C15.30945271 59.28108598 15.15289726 66.13661198 15 73 C28.2 72.67 41.4 72.34 55 72 C49.6250234 66.55364305 49.6250234 66.55364305 42.73046875 66.29296875 C41.70896477 66.27028679 41.70896477 66.27028679 40.66682434 66.24714661 C38.50670937 66.20439922 36.34799507 66.19544565 34.1875 66.1875 C32.71675998 66.16434511 31.24605302 66.13897769 29.77539062 66.11132812 C26.18362029 66.0486084 22.59231596 66.01616875 19 66 C19 64.68 19 63.36 19 62 C49.72434874 59.56834603 49.72434874 59.56834603 57.30859375 65.08203125 C60.81887302 68.34442622 63.53291737 71.90170462 66 76 C66 76.33 66 76.66 66 77 C47.85 77 29.7 77 11 77 C10.98582031 72.65457031 10.97164062 68.30914062 10.95703125 63.83203125 C10.93177681 60.3614176 10.90154812 56.89092639 10.86795807 53.42038727 C10.83389247 49.75991021 10.80854033 46.0998527 10.80444336 42.43920898 C10.80015645 38.91155715 10.77166394 35.38484653 10.72656822 31.85748863 C10.70730794 29.86071622 10.71294686 27.86375386 10.71894836 25.86689758 C10.91856153 18.6663722 10.91856153 18.6663722 7.45581055 12.76049805 C6.64539307 12.17953369 5.83497559 11.59856934 5 11 C5 10.34 5 9.68 5 9 C4.34 9 3.68 9 3 9 C3 26.49 3 43.98 3 62 C4.32 62 5.64 62 7 62 C6.67 63.32 6.34 64.64 6 66 C4.02 66 2.04 66 0 66 C0 44.22 0 22.44 0 0 Z " fill="#F3F3F3" transform="translate(81,73)"/>
<path d="M0 0 C2 0 2 0 4.59228516 2.33886719 C8.06192833 6.70328038 7.64885923 11.21725159 7.5234375 16.578125 C7.51873444 17.58591003 7.51403137 18.59369507 7.50918579 19.63201904 C7.48789978 22.83871822 7.43129229 26.04374485 7.375 29.25 C7.35848765 31.42185946 7.34414094 33.59373653 7.33203125 35.765625 C7.29810182 39.72580008 7.26343003 43.6858024 7.19287109 47.64550781 C7.18001068 48.44015442 7.16715027 49.23480103 7.15390015 50.05352783 C7 52 7 52 6 54 C4.02 53.67 2.04 53.34 0 53 C0 35.51 0 18.02 0 0 Z " fill="#252525" transform="translate(84,82)"/>
<path d="M0 0 C0.33 0 0.66 0 1 0 C1 16.83 1 33.66 1 51 C11.91924534 51.05185048 11.91924534 51.05185048 22.83837891 51.02758789 C24.21781701 51.04821072 25.59722016 51.07139824 26.9765625 51.09765625 C27.67998779 51.08343628 28.38341309 51.06921631 29.1081543 51.05456543 C31.19775391 51.11352539 31.19775391 51.11352539 35 52 C36.98 54.31 38.96 56.62 41 59 C27.47 59 13.94 59 0 59 C0 39.53 0 20.06 0 0 Z " fill="#1B1B1B" transform="translate(96,87)"/>
<path d="M0 0 C0.66 0 1.32 0 2 0 C2.98466253 2.95398758 3.12127836 4.85249022 3.11352539 7.93041992 C3.11344986 8.93123093 3.11337433 9.93204193 3.11329651 10.96318054 C3.10813522 12.04138565 3.10297394 13.11959076 3.09765625 14.23046875 C3.0962413 15.33602615 3.09482635 16.44158356 3.09336853 17.5806427 C3.08776514 21.11628917 3.07521204 24.65187262 3.0625 28.1875 C3.05748544 30.58268138 3.05292246 32.97786375 3.04882812 35.37304688 C3.03779461 41.24871947 3.02105316 47.12435523 3 53 C2.01 53 1.02 53 0 53 C0 35.51 0 18.02 0 0 Z " fill="#4C4C4C" transform="translate(84,82)"/>
</svg>
